<svg xmlns="http://www.w3.org/2000/svg" xmlns:xlink="http://www.w3.org/1999/xlink" width="500" zoomAndPan="magnify" viewBox="0 0 375 374.999991" height="500" preserveAspectRatio="xMidYMid meet" version="1.0"><defs><g/><clipPath id="ac2cae2376"><path d="M 133.871094 85.21875 L 241.121094 85.21875 L 241.121094 221.71875 L 133.871094 221.71875 Z M 133.871094 85.21875 " clip-rule="nonzero"/></clipPath></defs><g clip-path="url(#ac2cae2376)"><path fill="#763df2" d="M 169.496094 185.933594 C 171.371094 184.652344 173.390625 183.566406 175.523438 182.699219 L 175.523438 206.578125 L 169.496094 206.578125 Z M 187.5 85.601562 L 133.875 179.300781 L 159.171875 179.300781 L 158.800781 179.300781 L 160.324219 188.386719 L 160.339844 188.386719 C 161.394531 177.414062 166.519531 169.597656 172.648438 166.175781 C 172.648438 154.410156 174.203125 139.265625 187.480469 122.992188 L 187.492188 123.011719 L 187.503906 122.992188 C 200.78125 139.265625 202.335938 154.410156 202.335938 166.175781 C 208.464844 169.597656 213.589844 177.417969 214.644531 188.386719 L 214.660156 188.386719 L 216.183594 179.300781 L 215.8125 179.300781 L 241.105469 179.300781 L 187.484375 85.601562 Z M 187.5 159.933594 C 191.371094 159.933594 194.53125 156.769531 194.53125 152.886719 C 194.53125 149.003906 191.371094 145.84375 187.5 145.84375 C 183.625 145.84375 180.464844 149.003906 180.464844 152.886719 C 180.464844 156.769531 183.625 159.933594 187.5 159.933594 Z M 199.46875 182.699219 C 201.601562 183.566406 203.625 184.652344 205.5 185.933594 L 205.5 206.578125 L 199.46875 206.578125 Z M 187.5 180.378906 C 188.515625 180.378906 189.523438 180.421875 190.515625 180.519531 L 190.515625 221.34375 L 184.488281 221.34375 L 184.488281 180.519531 C 185.480469 180.429688 186.488281 180.378906 187.5 180.378906 Z M 187.5 180.378906 " fill-opacity="1" fill-rule="evenodd"/></g><g fill="#f9f9f9" fill-opacity="1"><g transform="translate(91.87186, 259.724686)"><g><path d="M 2.28125 -19.28125 L 6.75 -19.28125 L 6.75 0 L 2.28125 0 Z M 2.28125 -19.28125 "/></g></g></g><g fill="#f9f9f9" fill-opacity="1"><g transform="translate(109.776282, 259.724686)"><g><path d="M 19.828125 0 L 19.8125 -11.5625 L 14.125 -2.03125 L 12.125 -2.03125 L 6.46875 -11.328125 L 6.46875 0 L 2.28125 0 L 2.28125 -19.28125 L 5.984375 -19.28125 L 13.1875 -7.296875 L 20.296875 -19.28125 L 23.96875 -19.28125 L 24.015625 0 Z M 19.828125 0 "/></g></g></g><g fill="#f9f9f9" fill-opacity="1"><g transform="translate(144.950823, 259.724686)"><g><path d="M 10.640625 -19.28125 C 12.335938 -19.28125 13.816406 -18.992188 15.078125 -18.421875 C 16.335938 -17.859375 17.304688 -17.050781 17.984375 -16 C 18.660156 -14.957031 19 -13.71875 19 -12.28125 C 19 -10.875 18.660156 -9.640625 17.984375 -8.578125 C 17.304688 -7.523438 16.335938 -6.71875 15.078125 -6.15625 C 13.816406 -5.59375 12.335938 -5.3125 10.640625 -5.3125 L 6.75 -5.3125 L 6.75 0 L 2.28125 0 L 2.28125 -19.28125 Z M 10.390625 -8.953125 C 11.722656 -8.953125 12.738281 -9.238281 13.4375 -9.8125 C 14.132812 -10.394531 14.484375 -11.21875 14.484375 -12.28125 C 14.484375 -13.363281 14.132812 -14.191406 13.4375 -14.765625 C 12.738281 -15.347656 11.722656 -15.640625 10.390625 -15.640625 L 6.75 -15.640625 L 6.75 -8.953125 Z M 10.390625 -8.953125 "/></g></g></g><g fill="#f9f9f9" fill-opacity="1"><g transform="translate(173.983037, 259.724686)"><g><path d="M 14.578125 0 L 10.859375 -5.375 L 6.75 -5.375 L 6.75 0 L 2.28125 0 L 2.28125 -19.28125 L 10.640625 -19.28125 C 12.335938 -19.28125 13.816406 -18.992188 15.078125 -18.421875 C 16.335938 -17.859375 17.304688 -17.050781 17.984375 -16 C 18.660156 -14.957031 19 -13.71875 19 -12.28125 C 19 -10.851562 18.65625 -9.617188 17.96875 -8.578125 C 17.28125 -7.546875 16.304688 -6.753906 15.046875 -6.203125 L 19.359375 0 Z M 14.484375 -12.28125 C 14.484375 -13.363281 14.132812 -14.191406 13.4375 -14.765625 C 12.738281 -15.347656 11.722656 -15.640625 10.390625 -15.640625 L 6.75 -15.640625 L 6.75 -8.921875 L 10.390625 -8.921875 C 11.722656 -8.921875 12.738281 -9.210938 13.4375 -9.796875 C 14.132812 -10.390625 14.484375 -11.21875 14.484375 -12.28125 Z M 14.484375 -12.28125 "/></g></g></g><g fill="#f9f9f9" fill-opacity="1"><g transform="translate(203.097879, 259.724686)"><g><path d="M 11.625 0.328125 C 9.625 0.328125 7.816406 -0.101562 6.203125 -0.96875 C 4.597656 -1.832031 3.34375 -3.019531 2.4375 -4.53125 C 1.53125 -6.039062 1.078125 -7.742188 1.078125 -9.640625 C 1.078125 -11.535156 1.53125 -13.238281 2.4375 -14.75 C 3.34375 -16.269531 4.597656 -17.457031 6.203125 -18.3125 C 7.816406 -19.175781 9.625 -19.609375 11.625 -19.609375 C 13.625 -19.609375 15.421875 -19.175781 17.015625 -18.3125 C 18.617188 -17.457031 19.878906 -16.269531 20.796875 -14.75 C 21.710938 -13.238281 22.171875 -11.535156 22.171875 -9.640625 C 22.171875 -7.742188 21.710938 -6.039062 20.796875 -4.53125 C 19.878906 -3.019531 18.617188 -1.832031 17.015625 -0.96875 C 15.421875 -0.101562 13.625 0.328125 11.625 0.328125 Z M 11.625 -3.46875 C 12.757812 -3.46875 13.785156 -3.726562 14.703125 -4.25 C 15.628906 -4.78125 16.351562 -5.507812 16.875 -6.4375 C 17.394531 -7.375 17.65625 -8.441406 17.65625 -9.640625 C 17.65625 -10.835938 17.394531 -11.898438 16.875 -12.828125 C 16.351562 -13.765625 15.628906 -14.492188 14.703125 -15.015625 C 13.785156 -15.546875 12.757812 -15.8125 11.625 -15.8125 C 10.488281 -15.8125 9.457031 -15.546875 8.53125 -15.015625 C 7.613281 -14.492188 6.894531 -13.765625 6.375 -12.828125 C 5.851562 -11.898438 5.59375 -10.835938 5.59375 -9.640625 C 5.59375 -8.441406 5.851562 -7.375 6.375 -6.4375 C 6.894531 -5.507812 7.613281 -4.78125 8.53125 -4.25 C 9.457031 -3.726562 10.488281 -3.46875 11.625 -3.46875 Z M 11.625 -3.46875 "/></g></g></g><g fill="#f9f9f9" fill-opacity="1"><g transform="translate(235.215028, 259.724686)"><g><path d="M 20.828125 -19.28125 L 12.484375 0 L 8.078125 0 L -0.25 -19.28125 L 4.578125 -19.28125 L 10.4375 -5.515625 L 16.390625 -19.28125 Z M 20.828125 -19.28125 "/></g></g></g><g fill="#f9f9f9" fill-opacity="1"><g transform="translate(264.63285, 259.724686)"><g><path d="M 17.21875 -3.578125 L 17.21875 0 L 2.28125 0 L 2.28125 -19.28125 L 16.859375 -19.28125 L 16.859375 -15.703125 L 6.71875 -15.703125 L 6.71875 -11.515625 L 15.671875 -11.515625 L 15.671875 -8.046875 L 6.71875 -8.046875 L 6.71875 -3.578125 Z M 17.21875 -3.578125 "/></g></g></g><g fill="#763df2" fill-opacity="1"><g transform="translate(131.878604, 285.787774)"><g><path d="M 1.109375 -9.421875 L 3.296875 -9.421875 L 3.296875 0 L 1.109375 0 Z M 1.109375 -9.421875 "/></g></g></g><g fill="#763df2" fill-opacity="1"><g transform="translate(141.579669, 285.787774)"><g><path d="M 9.75 -9.421875 L 9.75 0 L 7.96875 0 L 3.265625 -5.71875 L 3.265625 0 L 1.109375 0 L 1.109375 -9.421875 L 2.921875 -9.421875 L 7.59375 -3.703125 L 7.59375 -9.421875 Z M 9.75 -9.421875 "/></g></g></g><g fill="#763df2" fill-opacity="1"><g transform="translate(157.738211, 285.787774)"><g><path d="M 10.171875 -9.421875 L 6.09375 0 L 3.9375 0 L -0.125 -9.421875 L 2.234375 -9.421875 L 5.09375 -2.6875 L 8 -9.421875 Z M 10.171875 -9.421875 "/></g></g></g><g fill="#763df2" fill-opacity="1"><g transform="translate(173.062661, 285.787774)"><g><path d="M 7.3125 -2.015625 L 2.953125 -2.015625 L 2.109375 0 L -0.125 0 L 4.078125 -9.421875 L 6.234375 -9.421875 L 10.4375 0 L 8.15625 0 Z M 6.625 -3.671875 L 5.140625 -7.28125 L 3.640625 -3.671875 Z M 6.625 -3.671875 "/></g></g></g><g fill="#763df2" fill-opacity="1"><g transform="translate(188.656173, 285.787774)"><g><path d="M 1.109375 -9.421875 L 5.390625 -9.421875 C 6.410156 -9.421875 7.3125 -9.222656 8.09375 -8.828125 C 8.882812 -8.441406 9.5 -7.894531 9.9375 -7.1875 C 10.375 -6.476562 10.59375 -5.648438 10.59375 -4.703125 C 10.59375 -3.765625 10.375 -2.941406 9.9375 -2.234375 C 9.5 -1.523438 8.882812 -0.972656 8.09375 -0.578125 C 7.3125 -0.191406 6.410156 0 5.390625 0 L 1.109375 0 Z M 5.28125 -1.796875 C 6.226562 -1.796875 6.976562 -2.054688 7.53125 -2.578125 C 8.09375 -3.097656 8.375 -3.804688 8.375 -4.703125 C 8.375 -5.597656 8.09375 -6.304688 7.53125 -6.828125 C 6.976562 -7.359375 6.226562 -7.625 5.28125 -7.625 L 3.296875 -7.625 L 3.296875 -1.796875 Z M 5.28125 -1.796875 "/></g></g></g><g fill="#763df2" fill-opacity="1"><g transform="translate(205.056871, 285.787774)"><g><path d="M 8.40625 -1.75 L 8.40625 0 L 1.109375 0 L 1.109375 -9.421875 L 8.234375 -9.421875 L 8.234375 -7.671875 L 3.28125 -7.671875 L 3.28125 -5.625 L 7.65625 -5.625 L 7.65625 -3.921875 L 3.28125 -3.921875 L 3.28125 -1.75 Z M 8.40625 -1.75 "/></g></g></g><g fill="#763df2" fill-opacity="1"><g transform="translate(219.372343, 285.787774)"><g><path d="M 7.109375 0 L 5.296875 -2.625 L 3.296875 -2.625 L 3.296875 0 L 1.109375 0 L 1.109375 -9.421875 L 5.1875 -9.421875 C 6.019531 -9.421875 6.742188 -9.28125 7.359375 -9 C 7.972656 -8.71875 8.445312 -8.320312 8.78125 -7.8125 C 9.113281 -7.300781 9.28125 -6.695312 9.28125 -6 C 9.28125 -5.300781 9.113281 -4.695312 8.78125 -4.1875 C 8.445312 -3.6875 7.96875 -3.300781 7.34375 -3.03125 L 9.453125 0 Z M 7.078125 -6 C 7.078125 -6.53125 6.90625 -6.9375 6.5625 -7.21875 C 6.21875 -7.5 5.722656 -7.640625 5.078125 -7.640625 L 3.296875 -7.640625 L 3.296875 -4.359375 L 5.078125 -4.359375 C 5.722656 -4.359375 6.21875 -4.5 6.5625 -4.78125 C 6.90625 -5.070312 7.078125 -5.476562 7.078125 -6 Z M 7.078125 -6 "/></g></g></g><g fill="#763df2" fill-opacity="1"><g transform="translate(234.54881, 285.787774)"><g><path d="M 4.203125 0.15625 C 3.460938 0.15625 2.742188 0.0546875 2.046875 -0.140625 C 1.359375 -0.335938 0.800781 -0.597656 0.375 -0.921875 L 1.109375 -2.5625 C 1.515625 -2.269531 1.992188 -2.035156 2.546875 -1.859375 C 3.109375 -1.679688 3.664062 -1.59375 4.21875 -1.59375 C 4.84375 -1.59375 5.300781 -1.679688 5.59375 -1.859375 C 5.894531 -2.046875 6.046875 -2.289062 6.046875 -2.59375 C 6.046875 -2.820312 5.957031 -3.007812 5.78125 -3.15625 C 5.601562 -3.300781 5.375 -3.414062 5.09375 -3.5 C 4.820312 -3.59375 4.457031 -3.695312 4 -3.8125 C 3.28125 -3.976562 2.691406 -4.144531 2.234375 -4.3125 C 1.773438 -4.488281 1.378906 -4.765625 1.046875 -5.140625 C 0.722656 -5.515625 0.5625 -6.015625 0.5625 -6.640625 C 0.5625 -7.191406 0.707031 -7.6875 1 -8.125 C 1.300781 -8.570312 1.75 -8.925781 2.34375 -9.1875 C 2.9375 -9.445312 3.664062 -9.578125 4.53125 -9.578125 C 5.132812 -9.578125 5.722656 -9.503906 6.296875 -9.359375 C 6.867188 -9.210938 7.367188 -9.007812 7.796875 -8.75 L 7.125 -7.09375 C 6.257812 -7.582031 5.390625 -7.828125 4.515625 -7.828125 C 3.910156 -7.828125 3.460938 -7.726562 3.171875 -7.53125 C 2.878906 -7.332031 2.734375 -7.070312 2.734375 -6.75 C 2.734375 -6.425781 2.898438 -6.1875 3.234375 -6.03125 C 3.566406 -5.875 4.082031 -5.71875 4.78125 -5.5625 C 5.5 -5.394531 6.082031 -5.222656 6.53125 -5.046875 C 6.988281 -4.878906 7.378906 -4.613281 7.703125 -4.25 C 8.035156 -3.882812 8.203125 -3.390625 8.203125 -2.765625 C 8.203125 -2.222656 8.050781 -1.726562 7.75 -1.28125 C 7.457031 -0.84375 7.007812 -0.492188 6.40625 -0.234375 C 5.800781 0.0234375 5.066406 0.15625 4.203125 0.15625 Z M 4.203125 0.15625 "/></g></g></g></svg>